<?xml version="1.0" encoding="UTF-8"?>
<svg width="512" height="512" viewBox="0 0 512 512" fill="none" xmlns="http://www.w3.org/2000/svg">
  <!-- Background Circle -->
  <circle cx="256" cy="256" r="256" fill="#1E3A8A"/>
  
  <!-- Book Base -->
  <path d="M384 176C384 164 378 124 256 124C134 124 128 164 128 176V336C128 348 134 388 256 388C378 388 384 348 384 336V176Z" fill="#3B82F6"/>
  
  <!-- Book Pages -->
  <path d="M256 124V388" stroke="white" stroke-width="8" stroke-linecap="round"/>
  
  <!-- Globe/Network Lines -->
  <circle cx="256" cy="256" r="80" stroke="white" stroke-width="6" stroke-opacity="0.8" stroke-dasharray="8 8"/>
  <circle cx="256" cy="256" r="120" stroke="white" stroke-width="4" stroke-opacity="0.6" stroke-dasharray="8 12"/>
  
  <!-- Connection Points -->
  <circle cx="256" cy="176" r="12" fill="white"/>
  <circle cx="196" cy="236" r="12" fill="white"/>
  <circle cx="316" cy="236" r="12" fill="white"/>
  <circle cx="256" cy="336" r="12" fill="white"/>
  <circle cx="196" cy="296" r="8" fill="white"/>
  <circle cx="316" cy="296" r="8" fill="white"/>
  
  <!-- Connection Lines -->
  <line x1="256" y1="176" x2="196" y2="236" stroke="white" stroke-width="4"/>
  <line x1="256" y1="176" x2="316" y2="236" stroke="white" stroke-width="4"/>
  <line x1="196" y1="236" x2="196" y2="296" stroke="white" stroke-width="4"/>
  <line x1="316" y1="236" x2="316" y2="296" stroke="white" stroke-width="4"/>
  <line x1="196" y1="296" x2="256" y2="336" stroke="white" stroke-width="4"/>
  <line x1="316" y1="296" x2="256" y2="336" stroke="white" stroke-width="4"/>
</svg>